<svg width="64" height="64" viewBox="0 0 64 64" fill="none" xmlns="http://www.w3.org/2000/svg">
<g clip-path="url(#clip0_4_951)">
<path d="M58.8387 11.952H57.8064V9.88751H63.6893L47.4839 0.43512L31.2785 9.88751H37.1613V11.952H5.16129C2.31535 11.952 0 14.2674 0 17.1133V50.1456C0 52.9915 2.31535 55.3069 5.16129 55.3069H20.6452V61.5004H15.4839V63.5649H48.5161V61.5004H43.3548V55.3069H58.8387C61.6846 55.3069 64 52.9915 64 50.1456V17.1133C64 14.2674 61.6846 11.952 58.8387 11.952ZM41.2903 61.5004H22.7097V55.3069H41.2903V61.5004ZM61.9355 50.1456C61.9355 51.8529 60.5461 53.2423 58.8387 53.2423H5.16129C3.45394 53.2423 2.06452 51.8529 2.06452 50.1456V49.1133H61.9355V50.1456ZM61.9355 47.0488H2.06452V17.1133C2.06452 15.406 3.45394 14.0165 5.16129 14.0165H37.1613V28.4682H39.2258V7.82299H38.9151L47.4839 2.82376L56.0526 7.82299H55.7419V18.1456H57.8064V14.0165H58.8387C60.5461 14.0165 61.9355 15.406 61.9355 17.1133V47.0488Z" fill="#14213D"/>
<path d="M19.6129 16.0811C11.6438 16.0811 5.16125 22.5636 5.16125 30.5327C5.16125 38.5017 11.6438 44.9843 19.6129 44.9843C27.5819 44.9843 34.0645 38.5017 34.0645 30.5327C34.0645 22.5636 27.5819 16.0811 19.6129 16.0811ZM16.512 18.5543C15.4302 19.7115 14.1925 21.2878 13.1974 23.2191C12.0578 22.7907 11.2103 22.3252 10.6694 21.9845C12.2384 20.3443 14.2493 19.1407 16.512 18.5543ZM9.35532 23.5969C9.97571 24.0088 10.9822 24.5889 12.3623 25.1185C11.8637 26.4532 11.5189 27.918 11.4085 29.5004H7.27842C7.45906 27.3265 8.19403 25.3094 9.35532 23.5969ZM9.35429 37.4684C8.19403 35.7569 7.45906 33.7389 7.27842 31.5649H11.4085C11.5179 33.1474 11.8637 34.6122 12.3613 35.9469C10.9811 36.4754 9.97467 37.0565 9.35429 37.4684ZM10.6694 39.0808C11.2103 38.7402 12.0578 38.2756 13.1974 37.8462C14.1925 39.7776 15.4291 41.3538 16.512 42.511C14.2493 41.9247 12.2384 40.7211 10.6694 39.0808ZM18.5806 41.6656C17.5659 40.656 16.2704 39.1407 15.2268 37.232C16.2147 36.9967 17.3316 36.8191 18.5806 36.7551V41.6656ZM18.5806 34.6906C16.9796 34.7639 15.5664 35.0013 14.3411 35.3192C13.8993 34.1683 13.5865 32.9131 13.4761 31.5649H18.5806V34.6906ZM18.5806 29.5004H13.4761C13.5865 28.1533 13.9014 26.8981 14.3453 25.7471C15.5695 26.064 16.9806 26.3014 18.5806 26.3747V29.5004ZM18.5806 24.3102C17.3336 24.2462 16.2188 24.0697 15.233 23.8354C16.2756 21.9309 17.568 20.4165 18.5806 19.406V24.3102ZM28.5564 21.9845C28.0154 22.3252 27.168 22.7897 26.0284 23.2191C25.0333 21.2878 23.7966 19.7115 22.7138 18.5543C24.9754 19.1407 26.9873 20.3443 28.5564 21.9845ZM20.6451 19.3998C21.6598 20.4093 22.9553 21.9247 23.9989 23.8333C23.0111 24.0687 21.8942 24.2462 20.6451 24.3102V19.3998ZM20.6451 26.3747C22.2462 26.3014 23.6593 26.064 24.8846 25.7461C25.3264 26.8971 25.6402 28.1523 25.7496 29.5004H20.6451V26.3747ZM20.6451 31.5649H25.7496C25.6392 32.912 25.3244 34.1672 24.8805 35.3182C23.6562 35.0003 22.2451 34.7639 20.6451 34.6906V31.5649ZM20.6451 36.7551C21.8921 36.8191 23.0069 36.9956 23.9927 37.23C22.9502 39.1345 21.6578 40.6488 20.6451 41.6594V36.7551ZM22.7138 42.511C23.7956 41.3538 25.0333 39.7776 26.0284 37.8462C27.168 38.2746 28.0154 38.7402 28.5564 39.0808C26.9873 40.7211 24.9754 41.9247 22.7138 42.511ZM29.8714 37.4674C29.2511 37.0555 28.2456 36.4754 26.8645 35.9458C27.362 34.6122 27.7068 33.1474 27.8173 31.5649H31.9484C31.7677 33.7389 31.0327 35.7569 29.8714 37.4674ZM31.9484 29.5004H27.8173C27.7078 27.918 27.362 26.4532 26.8645 25.1185C28.2446 24.59 29.2511 24.0088 29.8714 23.5969C31.0327 25.3084 31.7677 27.3265 31.9484 29.5004Z" fill="#FCA311"/>
<path d="M56.7742 24.3391C55.0669 24.3391 53.6774 25.7285 53.6774 27.4359C53.6774 28.0191 53.8488 28.559 54.1306 29.0245L51.6202 32.7892C51.294 32.6725 50.9471 32.5972 50.5807 32.5972C50.0274 32.5972 49.5154 32.7551 49.0653 33.0101L47.264 31.6589C47.4023 31.3089 47.4839 30.9311 47.4839 30.5327C47.4839 28.8253 46.0945 27.4359 44.3871 27.4359C42.6798 27.4359 41.2903 28.8253 41.2903 30.5327C41.2903 31.0684 41.44 31.5649 41.6795 32.0057L39.3673 34.896C39.0049 34.7463 38.6096 34.6617 38.1936 34.6617C36.4862 34.6617 35.0968 36.0511 35.0968 37.7585C35.0968 39.4658 36.4862 40.8552 38.1936 40.8552C39.9009 40.8552 41.2903 39.4658 41.2903 37.7585C41.2903 37.2227 41.1417 36.7262 40.9012 36.2854L43.2134 33.3951C43.5758 33.5438 43.9711 33.6294 44.3871 33.6294C44.9404 33.6294 45.4524 33.4715 45.9025 33.2165L47.7038 34.5678C47.5654 34.9177 47.4839 35.2955 47.4839 35.6939C47.4839 37.4013 48.8733 38.7907 50.5807 38.7907C52.288 38.7907 53.6774 37.4013 53.6774 35.6939C53.6774 35.1107 53.5061 34.5709 53.2243 34.1053L55.7337 30.3407C56.0609 30.4573 56.4078 30.5327 56.7742 30.5327C58.4816 30.5327 59.871 29.1432 59.871 27.4359C59.871 25.7285 58.4816 24.3391 56.7742 24.3391ZM38.1936 38.7907C37.6238 38.7907 37.1613 38.3283 37.1613 37.7585C37.1613 37.1887 37.6238 36.7262 38.1936 36.7262C38.7634 36.7262 39.2258 37.1887 39.2258 37.7585C39.2258 38.3283 38.7634 38.7907 38.1936 38.7907ZM44.3871 31.5649C43.8173 31.5649 43.3549 31.1025 43.3549 30.5327C43.3549 29.9629 43.8173 29.5004 44.3871 29.5004C44.9569 29.5004 45.4194 29.9629 45.4194 30.5327C45.4194 31.1025 44.9569 31.5649 44.3871 31.5649ZM50.5807 36.7262C50.0109 36.7262 49.5484 36.2638 49.5484 35.6939C49.5484 35.1241 50.0109 34.6617 50.5807 34.6617C51.1505 34.6617 51.6129 35.1241 51.6129 35.6939C51.6129 36.2638 51.1505 36.7262 50.5807 36.7262ZM56.7742 28.4681C56.2044 28.4681 55.742 28.0057 55.742 27.4359C55.742 26.8661 56.2044 26.4036 56.7742 26.4036C57.344 26.4036 57.8065 26.8661 57.8065 27.4359C57.8065 28.0057 57.344 28.4681 56.7742 28.4681Z" fill="#14213D"/>
<path d="M39.2258 30.5327H37.1613V32.5972H39.2258V30.5327Z" fill="#FCA311"/>
<path d="M57.8065 20.2101H55.7419V22.2746H57.8065V20.2101Z" fill="#FCA311"/>
<path d="M45.4194 23.3069H43.3549V25.3714H45.4194V23.3069Z" fill="#FCA311"/>
<path d="M51.6129 28.4681H49.5483V30.5327H51.6129V28.4681Z" fill="#FCA311"/>
<path d="M45.4194 19.1779H43.3549V21.2424H45.4194V19.1779Z" fill="#FCA311"/>
<path d="M51.6129 24.3391H49.5483V26.4036H51.6129V24.3391Z" fill="#FCA311"/>
<path d="M45.4194 7.823H43.3549V17.1133H45.4194V7.823Z" fill="#FCA311"/>
<path d="M51.6129 7.823H49.5483V22.2746H51.6129V7.823Z" fill="#FCA311"/>
</g>
<defs>
<clipPath id="clip0_4_951">
<rect width="64" height="64" fill="white"/>
</clipPath>
</defs>
</svg>
