<svg width="64" height="64" viewBox="0 0 64 64" fill="none" xmlns="http://www.w3.org/2000/svg">
<g clip-path="url(#clip0_4_865)">
<path d="M63.5 6.59677V0.5H57.4032V2.53226H6.59677V0.5H0.5V6.59677H6.59677V4.56452H21.4607C11.275 8.64224 3.98126 18.4408 3.57379 29.9677H1.51613V36.0645H7.6129V29.9677H5.60605C6.12427 16.3618 16.9735 5.36015 30.5195 4.60821L23.8049 11.3228L24.4156 15.2948C17.3749 18.3158 12.6935 25.3261 12.6935 33.0161C12.6935 39.2867 15.7216 45.1294 20.8226 48.7549V49.2742H18.7903V51.3064H20.8226V53.3387H18.7903V55.371H20.8226V57.4032H18.7903V59.4355H20.8226V63.5H43.1774V59.4355H45.2097V57.4032H43.1774V55.371H45.2097V53.3387H43.1774V51.3064H45.2097V49.2742H43.1774V48.7549C48.2784 45.1294 51.3064 39.2867 51.3064 33.0161C51.3064 25.3261 46.6251 18.3158 39.5844 15.2948L40.1951 11.3228L33.4805 4.60821C47.0265 5.36015 57.8757 16.3618 58.3939 29.9677H56.3871V36.0645H62.4839V29.9677H60.4262C60.0187 18.4408 52.725 8.64224 42.5403 4.56452H57.4032V6.59677H63.5ZM59.4355 2.53226H61.4677V4.56452H59.4355V2.53226ZM4.56452 4.56452H2.53226V2.53226H4.56452V4.56452ZM5.58065 34.0323H3.54839V32H5.58065V34.0323ZM41.1452 61.4677H22.8548V59.4355H41.1452V61.4677ZM41.1452 57.4032H22.8548V55.371H41.1452V57.4032ZM41.1452 53.3387H22.8548V51.3064H41.1452V53.3387ZM39.2663 17.3657C45.3001 20.1743 49.2742 26.3107 49.2742 33.0161C49.2742 38.7898 46.4036 44.159 41.5953 47.3781L41.1452 47.6799V49.2742H33.0161V47.2419H30.9839V49.2742H22.8548V47.6799L22.4047 47.3781C17.5964 44.159 14.7258 38.7898 14.7258 33.0161C14.7258 26.3107 18.6999 20.1743 24.7337 17.3657L25.7345 23.871H23.871V25.9032H26.0475H37.9535H40.129V23.871H38.2654L39.2663 17.3657ZM38.0307 12.032L36.2088 23.871H27.7922L25.9703 12.032L30.9839 7.01745V12.8378C29.2351 13.292 27.9355 14.8691 27.9355 16.7581C27.9355 18.9996 29.7584 20.8226 32 20.8226C34.2416 20.8226 36.0645 18.9996 36.0645 16.7581C36.0645 14.8691 34.7649 13.292 33.0161 12.8378V7.01745L38.0307 12.032ZM32 14.7258C33.1208 14.7258 34.0323 15.6373 34.0323 16.7581C34.0323 17.8789 33.1208 18.7903 32 18.7903C30.8792 18.7903 29.9677 17.8789 29.9677 16.7581C29.9677 15.6373 30.8792 14.7258 32 14.7258ZM58.4194 32H60.4516V34.0323H58.4194V32Z" fill="#14213D"/>
<path d="M32 28.9516C29.1985 28.9516 26.9194 31.2308 26.9194 34.0322C26.9194 36.4852 28.6681 38.5378 30.9839 39.0103V45.2097H33.0161V39.0103C35.3319 38.5378 37.0807 36.4862 37.0807 34.0322C37.0807 31.2308 34.8015 28.9516 32 28.9516ZM32 37.0806C30.3193 37.0806 28.9516 35.7129 28.9516 34.0322C28.9516 32.3516 30.3193 30.9839 32 30.9839C33.6807 30.9839 35.0484 32.3516 35.0484 34.0322C35.0484 35.7129 33.6807 37.0806 32 37.0806Z" fill="#FCA311"/>
</g>
<defs>
<clipPath id="clip0_4_865">
<rect width="63" height="63" fill="white" transform="translate(0.5 0.5)"/>
</clipPath>
</defs>
</svg>
