<svg width="64" height="64" viewBox="0 0 64 64" fill="none" xmlns="http://www.w3.org/2000/svg">
<g clip-path="url(#clip0_4_891)">
<path d="M64 32C64 14.3556 49.6444 0 32 0C14.3556 0 0 14.3556 0 32C0 49.6444 14.3556 64 32 64C40.927 64 49.4689 60.2395 55.521 53.6774H64V51.6129H55.7203V42.3226H57.8064V49.5484H59.871V42.3226H64V40.2581H62.8986C63.615 37.5711 64 34.8036 64 32ZM32.6534 43.168L34.8872 44.3551L31.6377 44.3654L30.3019 41.0261C29.8632 39.9298 28.8175 39.2217 27.6366 39.2217C26.7148 39.2217 25.8436 39.6686 25.3058 40.417C24.768 41.1665 24.6225 42.1347 24.9166 43.008L25.2284 43.935L22.9646 42.6983C22.2441 42.305 21.3832 42.2286 20.6039 42.4877C19.8565 42.7375 19.2434 43.2846 18.8955 43.9897C18.048 41.8622 17.3739 39.5799 16.9662 37.1613H34.0449C33.5859 37.1761 33.1316 37.2915 32.7081 37.5071C31.9246 37.9045 31.3528 38.5858 31.0978 39.4261C30.657 40.8805 31.3115 42.4547 32.6534 43.168ZM29.4173 44.3726L27.5572 44.3788L26.8738 42.3494C26.7902 42.1006 26.8305 41.8354 26.9832 41.6217C27.3301 41.1396 28.1652 41.2408 28.385 41.793L29.4173 44.3726ZM37.1613 35.0968V12.3871H41.2903V21.6774H48.5161V12.3871H52.6452V35.0968H37.1613ZM47.0286 37.1613C46.7695 38.6983 46.3938 40.2364 45.9055 41.76L43.9061 40.4274L35.2062 37.3419C34.8986 37.2334 34.5827 37.1735 34.267 37.1613H47.0286ZM43.3548 19.6129V12.3871H46.4516V19.6129H43.3548ZM52.6121 10.3226H42.1419C39.5561 6.66839 36.8609 3.91845 34.9966 2.21523C41.792 2.89342 47.9205 5.8591 52.6121 10.3226ZM33.0323 3.23097C34.6095 4.62452 37.1055 7.04723 39.584 10.3226H33.0323V3.23097ZM29.0023 2.21523C27.1381 3.91845 24.4439 6.66839 21.8581 10.3226H11.3868C16.0785 5.8591 22.207 2.89342 29.0023 2.21523ZM30.9677 3.23303V10.3226H24.416C26.8903 7.05445 29.3884 4.62864 30.9677 3.23303ZM11.3548 12.3871H35.0968V35.0968H11.3548V12.3871ZM9.29032 12.5285V30.9677H2.09032C2.33084 23.9412 5.00129 17.5236 9.29032 12.5285ZM10.0325 52.3086C5.30994 47.2041 2.34426 40.4573 2.09032 33.0323H9.29032V37.1613H14.8769C15.4044 40.5089 16.3954 43.5995 17.6485 46.3948C13.4307 48.4511 11.0472 51.009 10.0325 52.3086ZM11.5045 53.7879C12.2477 52.7979 14.4361 50.2668 18.5445 48.255C21.8106 54.6488 26.271 59.3105 28.9899 61.7837C22.2555 61.1086 16.1775 58.1874 11.5045 53.7879ZM30.9677 60.7649C28.6286 58.6911 24.2632 54.3463 20.9383 48.3045L25.3275 50.4702L30.9677 51.617V60.7649ZM53.6557 52.6462C48.7102 57.8292 42.0779 61.0632 35.0008 61.7796C37.0385 59.9164 40.065 56.8041 42.8532 52.6307L49.6289 52.641L53.6557 51.8359V52.6462ZM33.0323 60.7649V52.0372L35.905 52.6214L40.3489 52.6276C37.6351 56.4294 34.7737 59.2237 33.0323 60.7649ZM53.6568 49.7301H53.6557L49.4245 50.5765H36.2095L26.1203 48.5584L21.1468 46.1048C20.7102 45.8901 20.5254 45.3729 20.7267 44.928C20.831 44.6978 21.0199 44.5264 21.2604 44.447C21.5009 44.3675 21.7548 44.3892 21.9768 44.511L25.5226 46.4485H35.3197L39.393 44.4119L33.6227 41.3461C33.1499 41.0942 32.9187 40.5388 33.0735 40.0258C33.1634 39.7295 33.3657 39.489 33.6413 39.3486C33.9169 39.2083 34.2286 39.1876 34.5228 39.2908L42.8697 42.2173L46.1182 44.383H53.6568V49.7301ZM60.7597 40.2581H53.6557V42.3184H47.8947C48.4387 40.6111 48.8454 38.8852 49.1179 37.1613H54.7097V33.0323H61.8963C61.8126 35.488 61.4338 37.9086 60.7597 40.2581ZM54.7097 30.9677V12.5285C58.9987 17.5236 61.6692 23.9401 61.9097 30.9677H54.7097Z" fill="#FCA311"/>
<g clip-path="url(#clip1_4_891)">
<path d="M64 32C64 14.3556 49.6444 0 32 0C14.3556 0 0 14.3556 0 32C0 49.6444 14.3556 64 32 64C40.927 64 49.4689 60.2395 55.521 53.6774H64V51.6129H55.7203V42.3226H57.8064V49.5484H59.871V42.3226H64V40.2581H62.8986C63.615 37.5711 64 34.8036 64 32ZM32.6534 43.168L34.8872 44.3551L31.6377 44.3654L30.3019 41.0261C29.8632 39.9298 28.8175 39.2217 27.6366 39.2217C26.7148 39.2217 25.8436 39.6686 25.3058 40.417C24.768 41.1665 24.6225 42.1347 24.9166 43.008L25.2284 43.935L22.9646 42.6983C22.2441 42.305 21.3832 42.2286 20.6039 42.4877C19.8565 42.7375 19.2434 43.2846 18.8955 43.9897C18.048 41.8622 17.3739 39.5799 16.9662 37.1613H34.0449C33.5859 37.1761 33.1316 37.2915 32.7081 37.5071C31.9246 37.9045 31.3528 38.5858 31.0978 39.4261C30.657 40.8805 31.3115 42.4547 32.6534 43.168ZM29.4173 44.3726L27.5572 44.3788L26.8738 42.3494C26.7902 42.1006 26.8305 41.8354 26.9832 41.6217C27.3301 41.1396 28.1652 41.2408 28.385 41.793L29.4173 44.3726ZM37.1613 35.0968V12.3871H41.2903V21.6774H48.5161V12.3871H52.6452V35.0968H37.1613ZM47.0286 37.1613C46.7695 38.6983 46.3938 40.2364 45.9055 41.76L43.9061 40.4274L35.2062 37.3419C34.8986 37.2334 34.5827 37.1735 34.267 37.1613H47.0286ZM43.3548 19.6129V12.3871H46.4516V19.6129H43.3548ZM52.6121 10.3226H42.1419C39.5561 6.66839 36.8609 3.91845 34.9966 2.21523C41.792 2.89342 47.9205 5.8591 52.6121 10.3226ZM33.0323 3.23097C34.6095 4.62452 37.1055 7.04723 39.584 10.3226H33.0323V3.23097ZM29.0023 2.21523C27.1381 3.91845 24.4439 6.66839 21.8581 10.3226H11.3868C16.0785 5.8591 22.207 2.89342 29.0023 2.21523ZM30.9677 3.23303V10.3226H24.416C26.8903 7.05445 29.3884 4.62864 30.9677 3.23303ZM11.3548 12.3871H35.0968V35.0968H11.3548V12.3871ZM9.29032 12.5285V30.9677H2.09032C2.33084 23.9412 5.00129 17.5236 9.29032 12.5285ZM10.0325 52.3086C5.30994 47.2041 2.34426 40.4573 2.09032 33.0323H9.29032V37.1613H14.8769C15.4044 40.5089 16.3954 43.5995 17.6485 46.3948C13.4307 48.4511 11.0472 51.009 10.0325 52.3086ZM11.5045 53.7879C12.2477 52.7979 14.4361 50.2668 18.5445 48.255C21.8106 54.6488 26.271 59.3105 28.9899 61.7837C22.2555 61.1086 16.1775 58.1874 11.5045 53.7879ZM30.9677 60.7649C28.6286 58.6911 24.2632 54.3463 20.9383 48.3045L25.3275 50.4702L30.9677 51.617V60.7649ZM53.6557 52.6462C48.7102 57.8292 42.0779 61.0632 35.0008 61.7796C37.0385 59.9164 40.065 56.8041 42.8532 52.6307L49.6289 52.641L53.6557 51.8359V52.6462ZM33.0323 60.7649V52.0372L35.905 52.6214L40.3489 52.6276C37.6351 56.4294 34.7737 59.2237 33.0323 60.7649ZM53.6568 49.7301H53.6557L49.4245 50.5765H36.2095L26.1203 48.5584L21.1468 46.1048C20.7102 45.8901 20.5254 45.3729 20.7267 44.928C20.831 44.6978 21.0199 44.5264 21.2604 44.447C21.5009 44.3675 21.7548 44.3892 21.9768 44.511L25.5226 46.4485H35.3197L39.393 44.4119L33.6227 41.3461C33.1499 41.0942 32.9187 40.5388 33.0735 40.0258C33.1634 39.7295 33.3657 39.489 33.6413 39.3486C33.9169 39.2083 34.2286 39.1876 34.5228 39.2908L42.8697 42.2173L46.1182 44.383H53.6568V49.7301ZM60.7597 40.2581H53.6557V42.3184H47.8947C48.4387 40.6111 48.8454 38.8852 49.1179 37.1613H54.7097V33.0323H61.8963C61.8126 35.488 61.4338 37.9086 60.7597 40.2581ZM54.7097 30.9677V12.5285C58.9987 17.5236 61.6692 23.9401 61.9097 30.9677H54.7097Z" fill="#14213D"/>
</g>
</g>
<defs>
<clipPath id="clip0_4_891">
<rect width="64" height="64" fill="white"/>
</clipPath>
<clipPath id="clip1_4_891">
<rect width="64" height="37" fill="white"/>
</clipPath>
</defs>
</svg>
