<svg width="49" height="48" viewBox="0 0 49 48" fill="none" xmlns="http://www.w3.org/2000/svg">
<path d="M2 15.8107C1.99999 13.1946 2.71692 10.6285 4.07291 8.39122C5.42889 6.15396 7.37207 4.33109 9.69132 3.12066C12.0106 1.91023 14.6172 1.35854 17.228 1.52553C19.8387 1.69252 22.3538 2.57181 24.5 4.06785" stroke="#FCA311" stroke-width="3" stroke-miterlimit="10"/>
<path d="M47 15.8107C46.9868 12.567 45.8739 9.42372 43.8431 6.89434C41.8124 4.36496 38.9839 2.59905 35.8197 1.88512C32.6555 1.17119 29.3428 1.55145 26.4226 2.96378C23.5025 4.3761 21.1477 6.73699 19.7429 9.66072" stroke="#FCA311" stroke-width="3" stroke-miterlimit="10"/>
<path d="M47 15.8108V18.8536C46.9978 23.729 46.0367 28.5563 44.1714 33.0608C42.3094 37.5573 39.5787 41.6424 36.1357 45.0822C35.5059 45.7154 34.7126 46.1613 33.8442 46.3701C32.9758 46.5789 32.0665 46.5423 31.2177 46.2646C30.3689 45.9868 29.6139 45.4787 29.0369 44.797C28.4599 44.1153 28.0836 43.2867 27.95 42.4036L26.6429 33.7251C26.6429 33.1567 26.4171 32.6117 26.0152 32.2098C25.6134 31.808 25.0683 31.5822 24.5 31.5822C23.9317 31.5822 23.3867 31.808 22.9848 32.2098C22.5829 32.6117 22.3572 33.1567 22.3572 33.7251L21.0286 42.4036C20.895 43.2867 20.5187 44.1153 19.9417 44.797C19.3647 45.4787 18.6097 45.9868 17.7609 46.2646C16.9121 46.5423 16.0028 46.5789 15.1344 46.3701C14.266 46.1613 13.4727 45.7154 12.8429 45.0822C9.39857 41.6389 6.6678 37.5495 4.80715 33.0487C2.9465 28.5478 1.99257 23.7239 2.00004 18.8536V15.8108" stroke="#FCA311" stroke-width="3" stroke-miterlimit="10"/>
<path d="M24.5 15.8108H40.8714" stroke="#FCA311" stroke-width="3" stroke-miterlimit="10"/>
<path d="M32.6857 7.625V23.9964" stroke="#FCA311" stroke-width="3" stroke-miterlimit="10"/>
</svg>
