<svg width="52" height="53" viewBox="0 0 52 53" fill="none" xmlns="http://www.w3.org/2000/svg">
<g clip-path="url(#clip0_5_1806)">
<path d="M52 8.24191L44.2726 0.514526L33.5327 11.2546C30.107 9.20665 26.2085 8.12989 22.178 8.12989C9.94896 8.12968 0 18.0787 0 30.3076C0 36.2317 2.30689 41.801 6.49553 45.9898C10.6843 50.1787 16.2537 52.4854 22.1778 52.4854C28.1019 52.4854 33.6714 50.1785 37.8601 45.9898C42.0487 41.8012 44.3556 36.2316 44.3556 30.3076C44.3556 26.2925 43.2863 22.4064 41.2531 18.9886L52 8.24191ZM44.2726 5.00856L47.506 8.24191L45.5007 10.2472L42.2674 7.01382L44.2726 5.00856ZM40.0203 9.26078L43.2536 12.4941L30.8426 24.9051L27.6503 21.6307L40.0203 9.26078ZM27.3696 30.1368C27.3713 30.1935 27.3729 30.2504 27.3729 30.3076C27.3729 33.1723 25.0425 35.5027 22.1778 35.5027C19.3131 35.5027 16.9827 33.1723 16.9827 30.3076C16.9827 27.4429 19.3131 25.1125 22.1778 25.1125C22.2475 25.1125 22.3171 25.1141 22.3865 25.1168L20.1685 32.3461L27.3696 30.1368ZM24.9638 27.5508L25.9261 24.4141L28.0585 26.6013L24.9638 27.5508ZM23.5886 21.1985L23.3377 22.0162C22.9553 21.963 22.5681 21.9348 22.1779 21.9348C17.5611 21.9348 13.805 25.6909 13.805 30.3077C13.805 34.9244 17.561 38.6806 22.1779 38.6806C26.7948 38.6806 30.5508 34.9245 30.5508 30.3077C30.5508 29.9296 30.5245 29.5546 30.4747 29.1841L31.3161 28.9259L33.8909 26.3511C34.3183 27.6193 34.5412 28.9581 34.5412 30.3077C34.5412 37.1249 28.9951 42.671 22.1779 42.671C15.3607 42.671 9.81449 37.1248 9.81449 30.3076C9.81449 23.4904 15.3606 17.9443 22.1778 17.9443C23.5437 17.9443 24.8974 18.1721 26.1779 18.6091L23.5886 21.1985ZM22.1779 49.3077C11.7012 49.3077 3.17779 40.7843 3.17779 30.3076C3.17779 19.8309 11.7012 11.3075 22.1779 11.3075C25.3591 11.3075 28.4433 12.0902 31.2027 13.5843L28.6217 16.1653C26.6103 15.2486 24.4061 14.7666 22.1777 14.7666C13.6083 14.7666 6.6366 21.7383 6.6366 30.3077C6.6366 38.877 13.6084 45.8488 22.1777 45.8488C30.747 45.8488 37.7188 38.877 37.7188 30.3077C37.7188 28.0958 37.2429 25.9055 36.3379 23.904L38.9218 21.3201C40.4023 24.0706 41.1779 27.1418 41.1779 30.3076C41.178 40.7843 32.6546 49.3077 22.1779 49.3077Z" fill="#FCA311"/>
</g>
<defs>
<clipPath id="clip0_5_1806">
<rect width="52" height="52" fill="white" transform="translate(0 0.5)"/>
</clipPath>
</defs>
</svg>
