<svg width="50" height="51" viewBox="0 0 50 51" fill="none" xmlns="http://www.w3.org/2000/svg">
<g clip-path="url(#clip0_5_1831)">
<path d="M46.875 48.4167H3.125C1.45833 48.4167 0 46.9584 0 45.2917V41.125C0 40.5 0.416667 40.0834 1.04167 40.0834H17.7083C18.3333 40.0834 18.75 40.5 18.75 41.125V42.1667H31.25V41.125C31.25 40.5 31.6667 40.0834 32.2917 40.0834H48.9583C49.5833 40.0834 50 40.5 50 41.125V45.2917C50 46.9584 48.5417 48.4167 46.875 48.4167ZM2.08333 42.1667V45.2917C2.08333 45.9167 2.5 46.3334 3.125 46.3334H46.875C47.5 46.3334 47.9167 45.9167 47.9167 45.2917V42.1667H33.3333V43.2084C33.3333 43.8334 32.9167 44.25 32.2917 44.25H17.7083C17.0833 44.25 16.6667 43.8334 16.6667 43.2084V42.1667H2.08333Z" fill="#FCA311"/>
<path d="M22.9167 15.0833C20.625 15.0833 18.75 13.2083 18.75 10.9167C18.75 8.625 20.625 6.75 22.9167 6.75C25.2083 6.75 27.0833 8.625 27.0833 10.9167C27.0833 13.2083 25.2083 15.0833 22.9167 15.0833ZM22.9167 8.83333C21.6667 8.83333 20.8333 9.66667 20.8333 10.9167C20.8333 12.1667 21.6667 13 22.9167 13C24.1667 13 25 12.1667 25 10.9167C25 9.66667 24.1667 8.83333 22.9167 8.83333Z" fill="#FCA311"/>
<path d="M37.5 23.4167C35.2084 23.4167 33.3334 21.5417 33.3334 19.25C33.3334 16.9584 35.2084 15.0834 37.5 15.0834C39.7917 15.0834 41.6667 16.9584 41.6667 19.25C41.6667 21.5417 39.7917 23.4167 37.5 23.4167ZM37.5 17.1667C36.25 17.1667 35.4167 18 35.4167 19.25C35.4167 20.5 36.25 21.3334 37.5 21.3334C38.75 21.3334 39.5834 20.5 39.5834 19.25C39.5834 18 38.75 17.1667 37.5 17.1667Z" fill="#FCA311"/>
<path d="M46.875 6.75004H31.25V5.70837C31.25 4.04171 29.7917 2.58337 28.125 2.58337H7.29167C5.625 2.58337 4.16667 4.04171 4.16667 5.70837V6.75004H3.125C1.45833 6.75004 0 8.20837 0 9.87504V36.9584C0 37.5834 0.416667 38 1.04167 38H48.9583C49.5833 38 50 37.5834 50 36.9584V9.87504C50 8.20837 48.5417 6.75004 46.875 6.75004ZM31.25 19.25C31.25 18.625 31.0417 18.2084 30.8333 17.5834C31.0417 17.1667 31.25 16.75 31.25 16.125V13H42.7083C43.3333 13 43.75 13.4167 43.75 14.0417V30.2917L39.7917 26.3334C39.1667 25.7084 38.3333 25.5 37.5 25.5H21.6667C21.0417 25.5 20.625 25.0834 20.625 24.4584V19.25H22.7083C22.7083 21.5417 24.5833 23.4167 26.875 23.4167C29.375 23.4167 31.25 21.5417 31.25 19.25ZM25 19.25H28.125C28.5417 19.25 28.75 19.25 29.1667 19.0417V19.25C29.1667 20.5 28.3333 21.3334 27.0833 21.3334C25.8333 21.3334 25 20.5 25 19.25ZM6.25 5.70837C6.25 5.08337 6.66667 4.66671 7.29167 4.66671H28.125C28.75 4.66671 29.1667 5.08337 29.1667 5.70837V16.125C29.1667 16.75 28.75 17.1667 28.125 17.1667H12.2917C11.4583 17.1667 10.625 17.5834 10.2083 18L6.25 21.9584V5.70837ZM47.9167 35.9167H2.08333V9.87504C2.08333 9.25004 2.5 8.83337 3.125 8.83337H4.16667V24.4584C4.16667 24.875 4.375 25.2917 4.79167 25.5C5 25.5 5 25.5 5.20833 25.5C5.41667 25.5 5.83333 25.2917 6.04167 25.2917L11.6667 19.6667C11.875 19.4584 12.0833 19.25 12.2917 19.25H18.75V24.4584C18.75 26.125 20.2083 27.5834 21.875 27.5834H37.7083C37.9167 27.5834 38.3333 27.7917 38.5417 27.7917L44.1667 33.4167C44.375 33.625 44.5833 33.625 45 33.625C45.2083 33.625 45.2083 33.625 45.4167 33.625C45.8333 33.4167 46.0417 33 46.0417 32.5834V13.8334C45.8333 12.375 44.375 10.9167 42.7083 10.9167H31.25V8.83337H46.875C47.5 8.83337 47.9167 9.25004 47.9167 9.87504V35.9167Z" fill="#FCA311"/>
<path d="M12.5 15.0833C10.2084 15.0833 8.33337 13.2083 8.33337 10.9167C8.33337 8.625 10.2084 6.75 12.5 6.75C14.7917 6.75 16.6667 8.625 16.6667 10.9167C16.6667 13.2083 14.7917 15.0833 12.5 15.0833ZM12.5 8.83333C11.25 8.83333 10.4167 9.66667 10.4167 10.9167C10.4167 12.1667 11.25 13 12.5 13C13.75 13 14.5834 12.1667 14.5834 10.9167C14.5834 9.66667 13.75 8.83333 12.5 8.83333Z" fill="#FCA311"/>
<path d="M15.625 25.5001H11.4583C10.8333 25.5001 10.4166 25.0834 10.4166 24.4584C10.4166 23.8334 10.8333 23.4167 11.4583 23.4167H15.625C16.25 23.4167 16.6666 23.8334 16.6666 24.4584C16.6666 25.0834 16.25 25.5001 15.625 25.5001Z" fill="#FCA311"/>
<path d="M17.7083 29.6667H5.20829C4.58329 29.6667 4.16663 29.25 4.16663 28.625C4.16663 28 4.58329 27.5834 5.20829 27.5834H17.7083C18.3333 27.5834 18.75 28 18.75 28.625C18.75 29.25 18.3333 29.6667 17.7083 29.6667Z" fill="#FCA311"/>
<path d="M11.4583 33.8333H5.20829C4.58329 33.8333 4.16663 33.4167 4.16663 32.7917C4.16663 32.1667 4.58329 31.75 5.20829 31.75H11.4583C12.0833 31.75 12.5 32.1667 12.5 32.7917C12.5 33.4167 12.0833 33.8333 11.4583 33.8333Z" fill="#FCA311"/>
<path d="M21.875 33.8333H15.625C15 33.8333 14.5834 33.4167 14.5834 32.7917C14.5834 32.1667 15 31.75 15.625 31.75H21.875C22.5 31.75 22.9167 32.1667 22.9167 32.7917C22.9167 33.4167 22.5 33.8333 21.875 33.8333Z" fill="#FCA311"/>
<path d="M38.5417 33.8333H26.0417C25.4167 33.8333 25 33.4167 25 32.7917C25 32.1667 25.4167 31.75 26.0417 31.75H38.5417C39.1667 31.75 39.5833 32.1667 39.5833 32.7917C39.5833 33.4167 39.1667 33.8333 38.5417 33.8333Z" fill="#FCA311"/>
</g>
<defs>
<clipPath id="clip0_5_1831">
<rect width="50" height="50" fill="white" transform="translate(0 0.5)"/>
</clipPath>
</defs>
</svg>
