<svg width="64" height="63" viewBox="0 0 64 63" fill="none" xmlns="http://www.w3.org/2000/svg">
<g clip-path="url(#clip0_4_790)">
<path d="M52.2352 44.2016L54.0571 42.3797L52.6203 40.9429L50.7984 42.7648L48.8809 40.8474C50.4214 38.0744 51.3064 34.8898 51.3064 31.5C51.3064 31.2104 51.276 30.9289 51.2628 30.6424C56.0375 29.5196 59.4355 25.2925 59.4355 20.3226H57.4032C57.4032 24.2469 54.7836 27.6031 51.0646 28.603C49.6593 19.3298 41.6583 12.1935 32 12.1935C31.7104 12.1935 31.4289 12.224 31.1424 12.2372C30.0196 7.46245 25.7925 4.06451 20.8226 4.06451V6.09677C24.7469 6.09677 28.1031 8.71635 29.103 12.4354C19.8298 13.8407 12.6935 21.8417 12.6935 31.5C12.6935 31.7896 12.724 32.0711 12.7372 32.3576C7.96245 33.4804 4.56451 37.7075 4.56451 42.6774H6.59677C6.59677 38.7531 9.21635 35.3969 12.9354 34.397C14.3407 43.6702 22.3417 50.8064 32 50.8064C35.3898 50.8064 38.5744 49.9214 41.3464 48.3809L43.2638 50.2984L41.4419 52.1203L42.8787 53.5571L44.7006 51.7352L54.4056 61.4402C55.4116 62.4462 56.7499 63 58.1724 63C61.1101 63 63.5 60.6101 63.5 57.6734C63.5 56.2509 62.9462 54.9126 61.9402 53.9067L52.2352 44.2016ZM32 14.2258C40.6676 14.2258 47.8425 20.6477 49.0689 28.98L47.0661 29.3133C46.0012 21.9433 39.6606 16.2581 32 16.2581C31.9482 16.2581 31.8974 16.2652 31.8455 16.2662L31.5102 14.2512C31.6748 14.2461 31.8344 14.2258 32 14.2258ZM32 18.2903C39.2836 18.2903 45.2097 24.2164 45.2097 31.5C45.2097 38.7836 39.2836 44.7097 32 44.7097C24.7164 44.7097 18.7903 38.7836 18.7903 31.5C18.7903 24.2164 24.7164 18.2903 32 18.2903ZM14.7258 31.5C14.7258 22.8324 21.1477 15.6575 29.48 14.4311L29.8133 16.4339C22.4433 17.4988 16.7581 23.8394 16.7581 31.5C16.7581 31.5518 16.7652 31.6026 16.7662 31.6544L14.7512 31.9898C14.7461 31.8252 14.7258 31.6656 14.7258 31.5ZM32 48.7742C23.3324 48.7742 16.1575 42.3523 14.9311 34.02L16.9339 33.6867C17.9988 41.0567 24.3394 46.7419 32 46.7419C40.4044 46.7419 47.2419 39.9044 47.2419 31.5C47.2419 31.4482 47.2348 31.3974 47.2338 31.3455L49.2488 31.0102C49.2539 31.1748 49.2742 31.3344 49.2742 31.5C49.2742 41.0252 41.5252 48.7742 32 48.7742ZM43.1063 47.2663C44.913 45.99 46.49 44.413 47.7663 42.6063L49.3616 44.2016L44.7016 48.8616L43.1063 47.2663ZM58.1734 60.9677C57.2935 60.9677 56.4653 60.6253 55.8435 60.0034L46.1384 50.2984L50.7984 45.6384L60.5034 55.3435C61.1253 55.9653 61.4677 56.7935 61.4677 57.6734C61.4677 59.4903 59.9903 60.9677 58.1734 60.9677Z" fill="#14213D"/>
<path d="M54.3548 18.2903C59.3979 18.2903 63.5 14.1882 63.5 9.14516C63.5 4.10211 59.3979 0 54.3548 0C49.3118 0 45.2097 4.10211 45.2097 9.14516C45.2097 14.1882 49.3118 18.2903 54.3548 18.2903ZM57.4032 15.562C56.4775 16.003 55.4461 16.2581 54.3548 16.2581C53.2635 16.2581 52.2321 16.003 51.3064 15.562V14.2258C51.3064 12.5451 52.6741 11.1774 54.3548 11.1774C56.0355 11.1774 57.4032 12.5451 57.4032 14.2258V15.562ZM52.3226 7.1129C52.3226 5.99211 53.234 5.08065 54.3548 5.08065C55.4756 5.08065 56.3871 5.99211 56.3871 7.1129C56.3871 8.23369 55.4756 9.14516 54.3548 9.14516C53.234 9.14516 52.3226 8.23369 52.3226 7.1129ZM54.3548 2.03226C58.2761 2.03226 61.4677 5.22392 61.4677 9.14516C61.4677 11.0829 60.6863 12.8398 59.4253 14.1242C59.3908 12.4161 58.5179 10.9092 57.1939 10.014C57.9478 9.27624 58.4193 8.24995 58.4193 7.1129C58.4193 4.87132 56.5964 3.04839 54.3548 3.04839C52.1132 3.04839 50.2903 4.87132 50.2903 7.1129C50.2903 8.24995 50.7618 9.27624 51.5158 10.014C50.1907 10.9102 49.3179 12.4161 49.2843 14.1242C48.0233 12.8398 47.2419 11.0829 47.2419 9.14516C47.2419 5.22392 50.4336 2.03226 54.3548 2.03226Z" fill="#FCA311"/>
<path d="M9.64516 18.2903C14.6882 18.2903 18.7903 14.1882 18.7903 9.14516C18.7903 4.10211 14.6882 0 9.64516 0C4.60211 0 0.5 4.10211 0.5 9.14516C0.5 14.1882 4.60211 18.2903 9.64516 18.2903ZM12.6935 15.562C11.7679 16.003 10.7365 16.2581 9.64516 16.2581C8.55384 16.2581 7.52247 16.003 6.59677 15.562V14.2258C6.59677 12.5451 7.96448 11.1774 9.64516 11.1774C11.3258 11.1774 12.6935 12.5451 12.6935 14.2258V15.562ZM7.6129 7.1129C7.6129 5.99211 8.52437 5.08065 9.64516 5.08065C10.766 5.08065 11.6774 5.99211 11.6774 7.1129C11.6774 8.23369 10.766 9.14516 9.64516 9.14516C8.52437 9.14516 7.6129 8.23369 7.6129 7.1129ZM9.64516 2.03226C13.5664 2.03226 16.7581 5.22392 16.7581 9.14516C16.7581 11.0829 15.9767 12.8398 14.7156 14.1242C14.6811 12.4161 13.8082 10.9092 12.4842 10.014C13.2382 9.27624 13.7097 8.24995 13.7097 7.1129C13.7097 4.87132 11.8867 3.04839 9.64516 3.04839C7.40358 3.04839 5.58065 4.87132 5.58065 7.1129C5.58065 8.24995 6.05213 9.27624 6.8061 10.014C5.48208 10.9102 4.60923 12.4161 4.57468 14.1242C3.31366 12.8398 2.53226 11.0829 2.53226 9.14516C2.53226 5.22392 5.72392 2.03226 9.64516 2.03226Z" fill="#FCA311"/>
<path d="M9.64516 44.7097C4.60211 44.7097 0.5 48.8118 0.5 53.8548C0.5 58.8979 4.60211 63 9.64516 63C14.6882 63 18.7903 58.8979 18.7903 53.8548C18.7903 48.8118 14.6882 44.7097 9.64516 44.7097ZM12.6935 60.2717C11.7679 60.7127 10.7365 60.9677 9.64516 60.9677C8.55384 60.9677 7.52247 60.7127 6.59677 60.2717V58.9355C6.59677 57.2548 7.96448 55.8871 9.64516 55.8871C11.3258 55.8871 12.6935 57.2548 12.6935 58.9355V60.2717ZM7.6129 51.8226C7.6129 50.7018 8.52437 49.7903 9.64516 49.7903C10.766 49.7903 11.6774 50.7018 11.6774 51.8226C11.6774 52.9433 10.766 53.8548 9.64516 53.8548C8.52437 53.8548 7.6129 52.9433 7.6129 51.8226ZM14.7156 58.8339C14.6811 57.1257 13.8082 55.6188 12.4842 54.7236C13.2382 53.9859 13.7097 52.9596 13.7097 51.8226C13.7097 49.581 11.8867 47.758 9.64516 47.758C7.40358 47.758 5.58065 49.581 5.58065 51.8226C5.58065 52.9596 6.05213 53.9859 6.8061 54.7236C5.48208 55.6198 4.60923 57.1257 4.57468 58.8339C3.31366 57.5495 2.53226 55.7926 2.53226 53.8548C2.53226 49.9336 5.72392 46.7419 9.64516 46.7419C13.5664 46.7419 16.7581 49.9336 16.7581 53.8548C16.7581 55.7926 15.9767 57.5495 14.7156 58.8339Z" fill="#FCA311"/>
<path d="M20.8226 29.4677V34.5484V35.5645V36.5806H43.1774V35.5645V34.5484V25.4032H37.0806V34.5484H35.0484V21.3387H28.9516V34.5484H26.9193V29.4677H20.8226ZM39.1129 27.4355H41.1452V34.5484H39.1129V27.4355ZM30.9839 23.3709H33.0161V34.5484H30.9839V23.3709ZM24.8871 34.5484H22.8548V31.5H24.8871V34.5484Z" fill="#FCA311"/>
</g>
<defs>
<clipPath id="clip0_4_790">
<rect width="63" height="63" fill="white" transform="translate(0.5)"/>
</clipPath>
</defs>
</svg>
