<svg width="64" height="63" viewBox="0 0 64 63" fill="none" xmlns="http://www.w3.org/2000/svg">
<path fill-rule="evenodd" clip-rule="evenodd" d="M23.2943 26.9415C23.9434 26.5087 24.3333 25.7802 24.3333 25V15.6667C24.3333 11.8007 21.1993 8.66669 17.3333 8.66669H7.99996C6.71129 8.66669 5.66663 9.71136 5.66663 11C5.66663 34.196 26.804 55.3334 50 55.3334C51.2886 55.3334 52.3333 54.2887 52.3333 53V43.6667C52.3333 39.8007 49.1993 36.6667 45.3333 36.6667H36C35.2198 36.6667 34.4913 37.0566 34.0585 37.7057L29.6127 44.3744C24.7705 41.2435 20.5282 37.1081 17.265 32.3476L16.6256 31.3873L23.2943 26.9415ZM37.2487 41.3334H45.3333C46.622 41.3334 47.6666 42.378 47.6666 43.6667V50.5858C43.1464 50.273 38.735 49.0641 34.6204 47.147L33.6762 46.6921L37.2487 41.3334ZM33.6666 18C38.8213 18 43 22.1787 43 27.3334C43 28.622 41.9553 29.6667 40.6666 29.6667C39.47 29.6667 38.4838 28.7659 38.349 27.6055L38.3205 26.9851C38.1423 24.5704 36.1268 22.6667 33.6666 22.6667C32.378 22.6667 31.3333 21.622 31.3333 20.3334C31.3333 19.0447 32.378 18 33.6666 18ZM33.6666 8.66669C43.9759 8.66669 52.3333 17.024 52.3333 27.3334C52.3333 28.622 51.2886 29.6667 50 29.6667C48.7113 29.6667 47.6666 28.622 47.6666 27.3334C47.6666 19.6014 41.3986 13.3334 33.6666 13.3334C32.378 13.3334 31.3333 12.2887 31.3333 11C31.3333 9.71136 32.378 8.66669 33.6666 8.66669ZM17.3333 13.3334C18.622 13.3334 19.6666 14.378 19.6666 15.6667V23.7513L14.3078 27.3238C12.1272 22.9431 10.751 18.2013 10.4142 13.3334H17.3333Z" fill="#14213D"/>
<g clip-path="url(#clip0_4_800)">
<rect width="29" height="28" transform="translate(29 5)" fill="#F5F5F5"/>
<path fill-rule="evenodd" clip-rule="evenodd" d="M20.6422 26.3633C21.3655 25.8811 21.8 25.0693 21.8 24.2V13.8C21.8 9.49218 18.3078 6 14 6H3.6C2.16406 6 1 7.16406 1 8.6C1 34.4469 24.5531 58 50.4 58C51.8359 58 53 56.8359 53 55.4V45C53 40.6922 49.5078 37.2 45.2 37.2H34.8C33.9307 37.2 33.1189 37.6345 32.6367 38.3578L27.6828 45.7886C22.2872 42.2999 17.56 37.6919 13.9239 32.3873L13.2114 31.3172L20.6422 26.3633ZM36.1915 42.4H45.2C46.6359 42.4 47.8 43.5641 47.8 45V52.7099C42.7632 52.3613 37.8476 51.0142 33.2627 48.8781L32.2107 48.3712L36.1915 42.4ZM32.2 16.4C37.9438 16.4 42.6 21.0562 42.6 26.8C42.6 28.2359 41.4359 29.4 40 29.4C38.6666 29.4 37.5677 28.3963 37.4175 27.1032L37.3857 26.4119C37.1872 23.7213 34.9413 21.6 32.2 21.6C30.7641 21.6 29.6 20.4359 29.6 19C29.6 17.5641 30.7641 16.4 32.2 16.4ZM32.2 6C43.6875 6 53 15.3125 53 26.8C53 28.2359 51.8359 29.4 50.4 29.4C48.9641 29.4 47.8 28.2359 47.8 26.8C47.8 18.1844 40.8156 11.2 32.2 11.2C30.7641 11.2 29.6 10.0359 29.6 8.6C29.6 7.16406 30.7641 6 32.2 6ZM14 11.2C15.4359 11.2 16.6 12.3641 16.6 13.8V22.8085L10.6288 26.7893C8.19895 21.908 6.66549 16.6243 6.29015 11.2H14Z" fill="#FCA311"/>
</g>
<defs>
<clipPath id="clip0_4_800">
<rect width="29" height="28" fill="white" transform="translate(29 5)"/>
</clipPath>
</defs>
</svg>
