<svg width="62" height="63" viewBox="0 0 62 63" fill="none" xmlns="http://www.w3.org/2000/svg">
<g clip-path="url(#clip0_4_832)">
<path d="M53.0195 57.2609V13.3563C54.1988 13.0866 55.0822 12.031 55.0822 10.7711C55.0822 9.30775 53.8918 8.11716 52.4285 8.11716H41.6813V8.1036C41.6813 6.70012 40.5395 5.55833 39.1361 5.55833H36.9578C36.4888 2.69337 33.9956 0.5 31 0.5C28.0044 0.5 25.5113 2.69337 25.0421 5.55857H22.8637C21.4602 5.55857 20.3184 6.70036 20.3184 8.10384V8.1174H9.57174C8.10844 8.11728 6.91785 9.30775 6.91785 10.7712C6.91785 12.031 7.80123 13.0866 8.98056 13.3564V57.261C7.80123 57.5308 6.91785 58.5864 6.91785 59.8462C6.91785 61.3095 8.10832 62.5001 9.57174 62.5001H52.4285C53.8917 62.5001 55.0822 61.3096 55.0822 59.8462C55.0822 58.5861 54.1987 57.5306 53.0195 57.2609ZM41.6813 10.0751H52.4285C52.8121 10.0751 53.1242 10.3873 53.1242 10.7711C53.1242 11.1548 52.8121 11.467 52.4285 11.467H52.0404H41.6813V10.0751ZM22.2764 12.4461V9.0962V8.10384C22.2764 7.78004 22.5399 7.51641 22.8638 7.51641H25.9418C26.4825 7.51641 26.9207 7.07818 26.9207 6.53749C26.9208 4.28805 28.7508 2.45784 31 2.45784C33.2492 2.45784 35.0792 4.28793 35.0793 6.53749C35.0793 7.0783 35.5176 7.51641 36.0582 7.51641H39.1361C39.4599 7.51641 39.7235 7.77991 39.7235 8.10384V9.09632V12.4461V13.0537C39.7235 13.3775 39.46 13.6411 39.1361 13.6411H22.8638C22.54 13.6411 22.2764 13.3776 22.2764 13.0537V12.4461ZM8.87581 10.7712C8.87581 10.3874 9.18799 10.0752 9.57174 10.0752H20.3184V11.4672H9.9596H9.57186C9.18799 11.4671 8.87581 11.1549 8.87581 10.7712ZM52.4285 60.5422H9.57174C9.18799 60.5422 8.87581 60.23 8.87581 59.8462C8.87581 59.4625 9.18799 59.1503 9.57174 59.1503H43.3603C43.9011 59.1503 44.3392 58.7122 44.3392 58.1714C44.3392 57.6306 43.9011 57.1925 43.3603 57.1925H10.9385V13.4249H20.3456C20.3494 13.4517 20.3561 13.4774 20.3608 13.5039C20.367 13.5379 20.3731 13.5719 20.3806 13.6055C20.3909 13.6519 20.4031 13.6974 20.4159 13.7428C20.4249 13.7747 20.4334 13.8068 20.4437 13.8381C20.4588 13.8847 20.4762 13.93 20.494 13.9754C20.5053 14.004 20.5155 14.0331 20.5276 14.0613C20.549 14.1108 20.5732 14.1588 20.5977 14.2067C20.6091 14.229 20.6191 14.252 20.6311 14.2739C20.6689 14.3427 20.7095 14.4098 20.7532 14.4746C20.7581 14.4818 20.7638 14.4885 20.7688 14.4959C20.8083 14.5531 20.8494 14.6088 20.8933 14.6623C20.9105 14.6835 20.9295 14.703 20.9473 14.7234C20.9807 14.7618 21.0142 14.8 21.0497 14.8362C21.0716 14.8584 21.095 14.8794 21.1179 14.901C21.1518 14.933 21.186 14.965 21.2216 14.9952C21.2469 15.0166 21.273 15.0367 21.2991 15.057C21.3347 15.0849 21.3705 15.1123 21.4076 15.1382C21.4353 15.1577 21.4637 15.1761 21.4921 15.1944C21.5299 15.2186 21.5679 15.242 21.607 15.2642C21.6367 15.2812 21.6666 15.2975 21.697 15.3132C21.7369 15.3339 21.7776 15.3534 21.8188 15.3719C21.8499 15.3859 21.8809 15.3999 21.9126 15.4127C21.9553 15.43 21.9987 15.4453 22.0427 15.4603C22.0744 15.4711 22.1059 15.4823 22.1381 15.492C22.1846 15.5058 22.232 15.5172 22.2794 15.5285C22.3103 15.5357 22.341 15.544 22.3723 15.5503C22.4256 15.5607 22.4797 15.5679 22.5341 15.5751C22.561 15.5786 22.5875 15.5836 22.6146 15.5863C22.6966 15.5943 22.7794 15.5991 22.8636 15.5991H39.1359C39.22 15.5991 39.3029 15.5945 39.385 15.5863C39.412 15.5837 39.4384 15.5786 39.4652 15.5752C39.5196 15.5682 39.5739 15.5608 39.6273 15.5504C39.6587 15.5442 39.6891 15.536 39.7198 15.5287C39.7674 15.5174 39.8151 15.5059 39.8618 15.4921C39.8939 15.4826 39.9251 15.4714 39.9567 15.4606C40.0007 15.4456 40.0444 15.4301 40.0874 15.4127C40.1188 15.3999 40.1497 15.3862 40.1806 15.3723C40.2221 15.3535 40.2629 15.334 40.3033 15.3132C40.3334 15.2975 40.3631 15.2814 40.3924 15.2646C40.4316 15.2422 40.4701 15.2187 40.5082 15.1942C40.5364 15.1761 40.5645 15.1578 40.5918 15.1387C40.6293 15.1124 40.6655 15.0848 40.7013 15.0567C40.727 15.0365 40.753 15.0167 40.778 14.9956C40.8142 14.9651 40.8484 14.9329 40.8829 14.9003C40.9054 14.8792 40.9282 14.8587 40.9499 14.8367C40.9859 14.8 41.0199 14.7612 41.0538 14.7225C41.0713 14.7024 41.0898 14.6833 41.1067 14.6626C41.1511 14.6084 41.1931 14.5518 41.2329 14.494C41.2374 14.4874 41.2426 14.4815 41.247 14.4749C41.2907 14.41 41.3312 14.343 41.369 14.2742C41.381 14.2524 41.3909 14.2295 41.4023 14.2073C41.4269 14.1593 41.4511 14.1113 41.4727 14.0617C41.4848 14.0336 41.495 14.0045 41.5062 13.9759C41.524 13.9305 41.5415 13.8852 41.5566 13.8386C41.5668 13.8071 41.5752 13.7751 41.5843 13.7432C41.5972 13.6978 41.6094 13.6524 41.6197 13.606C41.6271 13.5724 41.6332 13.5385 41.6394 13.5044C41.6441 13.4779 41.6508 13.4522 41.6547 13.4254H51.0618V57.1926H46.6672C46.1264 57.1926 45.6883 57.6307 45.6883 58.1715C45.6883 58.7123 46.1264 59.1504 46.6672 59.1504H52.4288C52.8124 59.1504 53.1244 59.4626 53.1244 59.8464C53.1244 60.2301 52.8121 60.5422 52.4285 60.5422Z" fill="#14213D"/>
<path d="M31 9.15879C32.4575 9.15879 33.6432 7.97304 33.6432 6.51567C33.6432 5.05831 32.4575 3.87256 31 3.87256C29.5426 3.87256 28.3569 5.05831 28.3569 6.51567C28.3569 7.97304 29.5426 9.15879 31 9.15879ZM31 5.8304C31.3777 5.8304 31.6853 6.13774 31.6853 6.51567C31.6853 6.89348 31.3779 7.20094 31 7.20094C30.6222 7.20094 30.3148 6.89361 30.3148 6.51567C30.3148 6.13774 30.6222 5.8304 31 5.8304Z" fill="#FCA311"/>
<path d="M38.0848 24.6261C38.3357 24.1472 38.1506 23.5555 37.6718 23.3048L34.0104 21.3874C33.5318 21.1367 32.94 21.3215 32.6892 21.8003L30.7718 25.4617C30.5209 25.9406 30.7059 26.5323 31.1847 26.7831C31.3296 26.859 31.485 26.8951 31.6382 26.8951C31.9906 26.8951 32.3314 26.704 32.5061 26.3701L33.3226 24.811C35.4627 32.7533 31.7263 41.1063 24.2708 44.7556C23.638 44.0674 22.7771 43.6632 21.8427 43.6171C19.8792 43.5195 18.2316 45.0308 18.1358 46.975C18.089 47.9185 18.4126 48.8237 19.047 49.5239C19.6812 50.2239 20.5502 50.6353 21.4937 50.6819C21.5529 50.6848 21.6117 50.6862 21.6703 50.6862C23.5568 50.6862 25.1073 49.2095 25.2003 47.3242C25.214 47.0471 25.1949 46.7735 25.1463 46.5072C29.2704 44.4819 32.5246 41.0484 34.3346 36.7996C36.0367 32.8042 36.3288 28.3831 35.1888 24.2148L36.7636 25.0394C37.2418 25.29 37.8339 25.1051 38.0848 24.6261ZM23.2447 47.2272C23.2017 48.0952 22.4662 48.769 21.5902 48.7259C21.1691 48.7051 20.7811 48.5216 20.4978 48.2088C20.2147 47.8961 20.0703 47.4923 20.0911 47.071C20.1326 46.2295 20.8243 45.5701 21.6657 45.5701C21.6923 45.5701 21.719 45.5708 21.7462 45.5722C22.1672 45.5928 22.5551 45.7764 22.8382 46.0889C23.1212 46.4016 23.2656 46.8058 23.2447 47.2272Z" fill="#FCA311"/>
<path d="M22.2795 32.3926L20.6338 34.0383C20.2515 34.4208 20.2515 35.0405 20.6338 35.4228C20.8248 35.6139 21.0755 35.7094 21.3259 35.7094C21.5764 35.7094 21.827 35.6139 22.0181 35.4228L23.664 33.7769L25.3099 35.4228C25.501 35.6139 25.7517 35.7094 26.0021 35.7094C26.2525 35.7094 26.5032 35.6139 26.6943 35.4228C27.0766 35.0404 27.0766 34.4206 26.6943 34.0383L25.0485 32.3926L26.6944 30.7467C27.0767 30.3642 27.0767 29.7445 26.6944 29.3622C26.3121 28.98 25.6922 28.98 25.3099 29.3622L23.6639 31.0082L22.0179 29.3622C21.6356 28.98 21.0157 28.98 20.6335 29.3622C20.2512 29.7446 20.2512 30.3644 20.6335 30.7467L22.2795 32.3926Z" fill="#FCA311"/>
<path d="M41.9365 42.5961L43.5824 40.9501C43.9644 40.5679 43.9644 39.9481 43.5822 39.5657C43.1998 39.1835 42.58 39.1835 42.1977 39.5657L40.5518 41.2116L38.9059 39.5657C38.5235 39.1835 37.9038 39.1835 37.5215 39.5657C37.1392 39.9481 37.1392 40.5679 37.5215 40.9501L39.1674 42.5961L37.5216 44.2418C37.1393 44.6243 37.1393 45.244 37.5216 45.6263C37.7128 45.8174 37.9635 45.9129 38.2139 45.9129C38.4643 45.9129 38.715 45.8174 38.9062 45.6263L40.552 43.9805L42.1977 45.6263C42.3889 45.8174 42.6396 45.9129 42.89 45.9129C43.1405 45.9129 43.3911 45.8174 43.5823 45.6263C43.9646 45.2439 43.9646 44.6241 43.5823 44.2418L41.9365 42.5961Z" fill="#FCA311"/>
</g>
<defs>
<clipPath id="clip0_4_832">
<rect width="62" height="62" fill="white" transform="translate(0 0.5)"/>
</clipPath>
</defs>
</svg>
