<svg width="38" height="34" viewBox="0 0 38 34" fill="none" xmlns="http://www.w3.org/2000/svg">
<path d="M9.75 12.5263C10.9766 12.5263 12.153 12.055 13.0204 11.216C13.8877 10.377 14.375 9.23913 14.375 8.05263C14.375 6.86614 13.8877 5.72824 13.0204 4.88926C12.153 4.05028 10.9766 3.57895 9.75 3.57895C8.52337 3.57895 7.34699 4.05028 6.47963 4.88926C5.61228 5.72824 5.125 6.86614 5.125 8.05263C5.125 9.23913 5.61228 10.377 6.47963 11.216C7.34699 12.055 8.52337 12.5263 9.75 12.5263ZM9.75 16.1053C8.65675 16.1053 7.5742 15.897 6.56416 15.4923C5.55412 15.0876 4.63638 14.4945 3.86334 13.7467C3.09029 12.9989 2.47707 12.1112 2.0587 11.1342C1.64033 10.1572 1.425 9.11012 1.425 8.05263C1.425 6.99514 1.64033 5.94801 2.0587 4.97102C2.47707 3.99403 3.09029 3.10632 3.86334 2.35856C4.63638 1.61081 5.55412 1.01765 6.56416 0.61297C7.5742 0.208288 8.65675 -1.57578e-08 9.75 0C11.9579 3.18243e-08 14.0754 0.8484 15.6367 2.35856C17.1979 3.86872 18.075 5.91694 18.075 8.05263C18.075 10.1883 17.1979 12.2365 15.6367 13.7467C14.0754 15.2569 11.9579 16.1053 9.75 16.1053ZM29.175 19.6842C30.1563 19.6842 31.0974 19.3071 31.7913 18.636C32.4852 17.9648 32.875 17.0545 32.875 16.1053C32.875 15.1561 32.4852 14.2457 31.7913 13.5746C31.0974 12.9034 30.1563 12.5263 29.175 12.5263C28.1937 12.5263 27.2526 12.9034 26.5587 13.5746C25.8648 14.2457 25.475 15.1561 25.475 16.1053C25.475 17.0545 25.8648 17.9648 26.5587 18.636C27.2526 19.3071 28.1937 19.6842 29.175 19.6842ZM29.175 23.2632C27.2124 23.2632 25.3302 22.509 23.9424 21.1667C22.5546 19.8243 21.775 18.0037 21.775 16.1053C21.775 14.2069 22.5546 12.3862 23.9424 11.0439C25.3302 9.7015 27.2124 8.94737 29.175 8.94737C31.1376 8.94737 33.0198 9.7015 34.4076 11.0439C35.7954 12.3862 36.575 14.2069 36.575 16.1053C36.575 18.0037 35.7954 19.8243 34.4076 21.1667C33.0198 22.509 31.1376 23.2632 29.175 23.2632ZM33.8 34V33.1053C33.8 31.9188 33.3127 30.7809 32.4454 29.9419C31.578 29.1029 30.4016 28.6316 29.175 28.6316C27.9484 28.6316 26.772 29.1029 25.9046 29.9419C25.0373 30.7809 24.55 31.9188 24.55 33.1053V34H20.85V33.1053C20.85 32.0478 21.0653 31.0006 21.4837 30.0237C21.9021 29.0467 22.5153 28.1589 23.2883 27.4112C24.0614 26.6634 24.9791 26.0703 25.9892 25.6656C26.9992 25.2609 28.0817 25.0526 29.175 25.0526C30.2683 25.0526 31.3508 25.2609 32.3608 25.6656C33.3709 26.0703 34.2886 26.6634 35.0617 27.4112C35.8347 28.1589 36.4479 29.0467 36.8663 30.0237C37.2847 31.0006 37.5 32.0478 37.5 33.1053V34H33.8ZM15.3 34V26.8421C15.3 25.4183 14.7153 24.0528 13.6744 23.0461C12.6336 22.0393 11.222 21.4737 9.75 21.4737C8.27805 21.4737 6.86638 22.0393 5.82556 23.0461C4.78473 24.0528 4.2 25.4183 4.2 26.8421V34H0.5V26.8421C0.5 24.4691 1.47455 22.1933 3.20926 20.5154C4.94397 18.8374 7.29675 17.8947 9.75 17.8947C12.2033 17.8947 14.556 18.8374 16.2907 20.5154C18.0254 22.1933 19 24.4691 19 26.8421V34H15.3Z" fill="url(#paint0_linear_5_1002)"/>
<defs>
<linearGradient id="paint0_linear_5_1002" x1="19" y1="0" x2="19" y2="34" gradientUnits="userSpaceOnUse">
<stop stop-color="#FCA311"/>
<stop offset="1" stop-color="#14213D"/>
</linearGradient>
</defs>
</svg>
