<svg width="38" height="34" viewBox="0 0 38 34" fill="none" xmlns="http://www.w3.org/2000/svg">
<path d="M36.0208 8.04167H37.8125V25.9583H36.0208V31.3333C36.0208 31.8085 35.8321 32.2642 35.4961 32.6002C35.1601 32.9362 34.7043 33.125 34.2292 33.125H1.97917C1.50399 33.125 1.04827 32.9362 0.712267 32.6002C0.376264 32.2642 0.1875 31.8085 0.1875 31.3333V2.66667C0.1875 2.19149 0.376264 1.73577 0.712267 1.39977C1.04827 1.06376 1.50399 0.875 1.97917 0.875H34.2292C34.7043 0.875 35.1601 1.06376 35.4961 1.39977C35.8321 1.73577 36.0208 2.19149 36.0208 2.66667V8.04167ZM32.4375 25.9583H21.6875C19.3116 25.9583 17.033 25.0145 15.353 23.3345C13.673 21.6545 12.7292 19.3759 12.7292 17C12.7292 14.6241 13.673 12.3455 15.353 10.6655C17.033 8.98549 19.3116 8.04167 21.6875 8.04167H32.4375V4.45833H3.77083V29.5417H32.4375V25.9583ZM34.2292 22.375V11.625H21.6875C20.262 11.625 18.8948 12.1913 17.8868 13.1993C16.8788 14.2073 16.3125 15.5745 16.3125 17C16.3125 18.4255 16.8788 19.7927 17.8868 20.8007C18.8948 21.8087 20.262 22.375 21.6875 22.375H34.2292ZM21.6875 15.2083H27.0625V18.7917H21.6875V15.2083Z" fill="url(#paint0_linear_5_1037)"/>
<defs>
<linearGradient id="paint0_linear_5_1037" x1="19" y1="0.875" x2="19" y2="33.125" gradientUnits="userSpaceOnUse">
<stop stop-color="#FCA311"/>
<stop offset="1" stop-color="#14213D"/>
</linearGradient>
</defs>
</svg>
